<?xml version="1.0" standalone="no"?>
<!DOCTYPE svg PUBLIC "-//W3C//DTD SVG 20010904//EN"
 "http://www.w3.org/TR/2001/REC-SVG-20010904/DTD/svg10.dtd">
<svg version="1.0" xmlns="http://www.w3.org/2000/svg"
 width="500.000000pt" height="500.000000pt" viewBox="0 0 500.000000 500.000000"
 preserveAspectRatio="xMidYMid meet">
<metadata>
Created by potrace 1.11, written by Peter Selinger 2001-2013
</metadata>
<g transform="translate(0.000000,500.000000) scale(0.100000,-0.100000)"
fill="#000000" stroke="none">
<path d="M1242 3868 l3 -63 85 -6 c47 -3 95 -11 106 -17 34 -18 73 -69 84
-112 7 -27 10 -362 7 -1062 -3 -927 -5 -1029 -20 -1086 -27 -100 -63 -167
-118 -216 -58 -52 -117 -75 -216 -83 l-73 -6 0 -75 0 -75 108 6 c328 19 516
156 595 436 21 75 22 89 27 1121 5 1102 4 1062 49 1114 29 33 75 50 156 55
l80 6 3 63 3 62 -441 0 -441 0 3 -62z"/>
<path d="M2312 3868 l3 -63 80 -6 c44 -3 92 -11 106 -17 35 -14 76 -65 89
-110 6 -24 10 -310 10 -817 -1 -824 -1 -826 -47 -877 -32 -36 -76 -52 -158
-57 l-80 -6 -3 -62 -3 -63 471 0 471 0 -3 63 -3 62 -115 5 c-130 6 -166 20
-203 80 -21 34 -22 47 -25 323 l-3 287 133 0 c236 0 368 24 513 95 157 76 260
191 311 350 35 105 44 302 20 413 -46 221 -200 369 -446 433 -81 21 -108 23
-603 26 l-518 4 3 -63z m995 -112 c117 -37 198 -119 235 -239 20 -63 23 -94
23 -237 0 -186 -17 -264 -75 -352 -78 -117 -181 -157 -427 -165 l-163 -6 0
513 0 512 178 -5 c126 -3 192 -9 229 -21z"/>
<path d="M2280 1490 l0 -80 805 0 805 0 0 80 0 80 -805 0 -805 0 0 -80z"/>
</g>
</svg>
